<svg id="MOUSE" xmlns="http://www.w3.org/2000/svg" viewBox="0 0 512 512"><defs><style>.cls-1,.cls-4,.cls-9{fill:none;}.cls-1{stroke:#1c1c1c;stroke-width:31.5px;}.cls-1,.cls-9{stroke-linecap:round;stroke-linejoin:round;}.cls-2{fill:#aa644f;}.cls-3{fill:#b2b2b2;}.cls-4{stroke:#aa644f;}.cls-4,.cls-7{stroke-miterlimit:10;stroke-width:20.25px;}.cls-5{fill:#bf7960;}.cls-6{fill:#e0e0e0;}.cls-7{fill:#c1c1c1;stroke:#bf7960;}.cls-8{fill:#1c1c1c;}.cls-9{stroke:#333;stroke-width:3.38px;}</style></defs><title>mouse</title><path id="tail" class="cls-1" d="M451.84,267.11c-19.12,29.25,8.37,30.9,7.88,60.75-.54,32.21-31.77,34.05-34.88,55.13-3,20.59,13.47,39.3-1.27,62.09"/><g id="ear_L"><circle class="cls-2" cx="164.4" cy="385.8" r="45"/><ellipse class="cls-3" cx="161.03" cy="379.61" rx="19.13" ry="18.56"/><line class="cls-4" x1="192.53" y1="371.18" x2="141.9" y2="403.8"/></g><g id="body"><path class="cls-2" d="M88.94,444.39,271.76,327.73c32.32-20.62,92-6.23,111.18,28.26l55.69,99.9c7.88,14.15,1.15,25.64-15,25.53l-324.82-2.2C80.14,479.1,73.13,454.48,88.94,444.39Z"/><path class="cls-5" d="M84.26,444.65l179-115.86c37.46-24.24,87.16-11.43,108.86,28.07l54.53,99.21c7.72,14.05,1.13,25.46-14.65,25.36L94,479.24C75.64,479.11,68.78,454.67,84.26,444.65Z"/></g><g id="ear_R"><ellipse class="cls-2" cx="248.78" cy="367.24" rx="47.25" ry="44.44"/><circle class="cls-5" cx="243.15" cy="373.43" r="45"/><ellipse class="cls-6" cx="242.59" cy="370.27" rx="20.81" ry="19.69" transform="translate(-41.05 30.42) rotate(-6.62)"/><line class="cls-7" x1="207.69" y1="380.13" x2="301.92" y2="391.85"/></g><circle id="eye_L" class="cls-8" cx="141.34" cy="426.86" r="9.56"/><circle id="eye_R" class="cls-8" cx="167.78" cy="429.68" r="13.5"/><g id="nose"><g id="safam"><g id="safam_R"><path class="cls-9" d="M126.22,468.35c9.66,4.35,1.29,10,15.22,9.76"/><path class="cls-9" d="M129.63,462.48c10.51,1.27,4.21,9.19,17.43,4.79"/><path id="face_hair" data-name="face hair" class="cls-9" d="M121.4,472.68c7.66,7.31-2.13,9.88,11.1,14.27"/></g><g id="safam_L"><path class="cls-9" d="M44.2,477.72c9.22-5.21.36-10.1,14.26-11.11"/><path class="cls-9" d="M52.51,488.5c6.86-8.07-3.15-9.61,9.55-15.35"/><path class="cls-9" d="M40.93,463.36c10.54-1.06,4.39-9.1,17.52-4.44"/></g></g><rect class="cls-8" x="66.53" y="439.8" width="52.88" height="29.25" rx="12.59"/></g></svg>