<svg id="MOUSE" xmlns="http://www.w3.org/2000/svg" viewBox="0 0 512 512"><defs><style>.cls-1,.cls-4,.cls-9{fill:none;}.cls-1{stroke:#1c1c1c;stroke-width:28px;}.cls-1,.cls-9{stroke-linecap:round;stroke-linejoin:round;}.cls-2{fill:#aa644f;}.cls-3{fill:#b2b2b2;}.cls-4{stroke:#aa644f;}.cls-4,.cls-7{stroke-miterlimit:10;stroke-width:18px;}.cls-5{fill:#bf7960;}.cls-6{fill:#e0e0e0;}.cls-7{fill:#c1c1c1;stroke:#bf7960;}.cls-8{fill:#1c1c1c;}.cls-9{stroke:#333;stroke-width:3px;}</style></defs><title>mouse</title><path id="tail" class="cls-1" d="M430.5,159.5c-17,26,7.44,27.46,7,54-.47,28.63-28.24,30.27-31,49-2.7,18.3,12,34.93-1.13,55.19"/><g id="ear_L"><circle class="cls-2" cx="175" cy="265" r="40"/><ellipse class="cls-3" cx="172" cy="259.5" rx="17" ry="16.5"/><line class="cls-4" x1="200" y1="252" x2="155" y2="281"/></g><g id="body"><path class="cls-2" d="M107.92,317.08l162.51-103.7c28.72-18.32,81.74-5.54,98.83,25.12l49.49,88.81c7,12.57,1,22.79-13.3,22.69l-288.72-2C100.09,347.93,93.87,326.05,107.92,317.08Z"/><path class="cls-5" d="M103.76,317.31l159.13-103c33.29-21.55,77.48-10.16,96.77,24.94l48.47,88.19c6.86,12.49,1,22.64-13,22.54l-282.72-1.94C96.1,348,90,326.21,103.76,317.31Z"/></g><g id="ear_R"><ellipse class="cls-2" cx="250" cy="248.5" rx="42" ry="39.5"/><circle class="cls-5" cx="245" cy="254" r="40"/><ellipse class="cls-6" cx="244.5" cy="251.19" rx="18.5" ry="17.5" transform="translate(-27.31 29.84) rotate(-6.62)"/><line class="cls-7" x1="213.48" y1="259.96" x2="297.24" y2="270.38"/></g><circle id="eye_L" class="cls-8" cx="154.5" cy="301.5" r="8.5"/><circle id="eye_R" class="cls-8" cx="178" cy="304" r="12"/><g id="nose"><g id="safam"><g id="safam_R"><path class="cls-9" d="M141.06,338.38c8.59,3.86,1.14,8.91,13.53,8.68"/><path class="cls-9" d="M144.09,333.16c9.34,1.13,3.74,8.17,15.49,4.26"/><path id="face_hair" data-name="face hair" class="cls-9" d="M136.77,342.22c6.81,6.51-1.89,8.79,9.87,12.69"/></g><g id="safam_L"><path class="cls-9" d="M68.15,346.71c8.2-4.63.32-9,12.68-9.88"/><path class="cls-9" d="M75.54,356.29c6.09-7.18-2.8-8.54,8.49-13.64"/><path class="cls-9" d="M65.24,333.94c9.37-.94,3.9-8.09,15.58-3.95"/></g></g><rect class="cls-8" x="88" y="313" width="47" height="26" rx="11.2"/></g></svg>