<svg xmlns="http://www.w3.org/2000/svg" viewBox="0 0 512 512"><defs><style>.cls-1{fill:#942be0;}.cls-2{fill:#0cba52;}.cls-3{fill:#eaeaea;}.cls-4{fill:#f29b5f;}.cls-5{fill:#c17540;}.cls-6{fill:#751fc1;}.cls-7{fill:#61197c;}.cls-8{fill:#f95de3;}.cls-9{fill:#d335cc;}.cls-10{fill:none;stroke:#1c1c1c;stroke-linecap:round;stroke-linejoin:round;stroke-width:11.75px;}</style></defs><title>poison</title><g id="POISEN"><g id="body"><path id="body_circle" class="cls-1" d="M298,203.6C358.79,216.81,403,257,403,304.5,403,362.77,336.51,410,254.5,410S106,362.77,106,304.5c0-39.85,31.1-74.54,77-92.48Z"/><polygon class="cls-1" points="298 162 298 205.6 225.17 210.93 216.86 211.54 183 214.02 183 162 298 162"/></g><path id="slime" class="cls-2" d="M248.35,229.15c9.63,2.41,16.85-12,24.07-8.42,5.8,2.9,2.41,25.27,16.85,25.27,24.06,0,18.05-65,18.05-65l-78.79-.11S227.34,223.9,248.35,229.15Z"/><rect class="cls-3" x="292.88" y="185.83" width="7.22" height="8.42" rx="3.18"/><rect class="cls-3" x="292.88" y="197.86" width="7.22" height="19.25" rx="3.61"/><g id="cork"><rect class="cls-4" x="188.5" y="115" width="108" height="35" rx="6.82"/><rect class="cls-5" x="244" y="132" width="8" height="16" rx="4"/><path class="cls-5" d="M203,128.74v.52a3.75,3.75,0,0,1-3.74,3.74H188.5v-8h10.76A3.75,3.75,0,0,1,203,128.74Z"/><rect class="cls-5" x="218" y="124" width="9" height="5" rx="2.5"/><path class="cls-5" d="M269,115.5v7a3.5,3.5,0,0,1-7,0v-7a2.74,2.74,0,0,1,0-.5H269A2.74,2.74,0,0,1,269,115.5Z"/><path class="cls-5" d="M296.5,128v5h-4a2.5,2.5,0,1,1,0-5Z"/></g><rect id="neck" class="cls-6" x="168" y="139.5" width="149" height="48" rx="12.56"/><rect class="cls-7" x="220" y="318" width="68" height="27" rx="6.17"/><g id="tongue"><path class="cls-8" d="M245.3,382.09c-15.19-.43-22.35-11.75-25.66-24.14A23.86,23.86,0,0,1,242.73,328h32.33a.77.77,0,0,1,.77.75C276,335.26,275,382.92,245.3,382.09Z"/><path class="cls-9" d="M251.29,357.56a2.89,2.89,0,0,1-4-.59c-3.93-5.25-2.94-11.12-2.06-16.33.73-4.32,1.38-8.06-.5-11.17a2.83,2.83,0,0,1-.42-1.47h5.29a1.22,1.22,0,0,1,1.14.77c1.61,4.29.85,8.8.17,12.84-.79,4.64-1.48,8.64,1,11.93A2.88,2.88,0,0,1,251.29,357.56Z"/></g><path class="cls-6" d="M215.54,206.27a3.52,3.52,0,0,1-3.62,2.84c-1.35-.07-3.46-.09-6.06-.07-9.07.09-13.12.8-22.83,2.34,0,0,0,0,0,0v-7a0,0,0,0,1,0,0c13.07-1.94,22.49-2.52,29-2.21A3.59,3.59,0,0,1,215.54,206.27Z"/><g id="eye_right"><line class="cls-10" x1="309" y1="267" x2="336" y2="291"/><line class="cls-10" x1="309.5" y1="291.5" x2="333.5" y2="264.5"/></g><g id="eye_left"><line class="cls-10" x1="178" y1="267" x2="205" y2="291"/><line class="cls-10" x1="178.5" y1="291.5" x2="202.5" y2="264.5"/></g></g></svg>