<svg xmlns="http://www.w3.org/2000/svg" viewBox="0 0 512 512"><defs><style>.cls-1{fill:#8faebc;}.cls-2{fill:#263133;}.cls-3{fill:#78dd62;}.cls-4{fill:#47a82f;}.cls-5{fill:#9fbfd1;}.cls-6{fill:#2c373a;}</style></defs><title>seeds</title><g id="SEEDS"><g id="seed"><path class="cls-1" d="M400.54,170.07l1.77,5.8c-26,5.45-65,15.31-102,31.36a14.75,14.75,0,0,1,6-17.47l41.12-34.12C363.64,143.17,394.56,150.56,400.54,170.07Z"/><path class="cls-2" d="M402.29,175.8l1.59,5.18c6,19.53-15.54,43-35.93,41.66l-53.17-5.33a14.7,14.7,0,0,1-14.46-10.16C337.32,191.1,376.24,181.24,402.29,175.8Z"/></g><g id="seed_open"><g id="green"><path class="cls-3" d="M207.05,173.28c-9.89,23-8.38,45.78,3.29,51.48l.55.26c12.18,5.25,30.2-9.42,40.24-32.75s8.33-46.5-3.84-51.74l-.57-.23C234.56,135.75,216.94,150.32,207.05,173.28Z"/><path class="cls-4" d="M246.72,140.3l-36.38,84.46.55.26c12.18,5.25,30.2-9.42,40.24-32.75s8.33-46.5-3.84-51.74Z"/></g><path class="cls-5" d="M207.34,232.37l-4.63-3.93c17.4-19.3,32.72-53.59,68.92-81.42A14.73,14.73,0,0,1,276,165l-16.2,50.9C252.92,235.11,222.9,245.57,207.34,232.37Z"/><path class="cls-6" d="M208.44,232.87l-5.26-1.31c-19.83-4.91-28.88-35.42-17.26-52.23l31.89-42.87A14.72,14.72,0,0,1,234,129.28C228.71,169.27,217.16,207.72,208.44,232.87Z"/></g><g id="seeds-2" data-name="seeds"><path class="cls-1" d="M198.43,383.72l-6-1C199,357,207.26,317.69,209.12,277.4a14.74,14.74,0,0,1,13,13.09l12.56,51.93C238.82,362.42,218.59,386.93,198.43,383.72Z"/><path class="cls-2" d="M192.52,382.78l-5.35-.86c-20.18-3.21-31.78-32.85-21.62-50.58l28.17-45.41a14.69,14.69,0,0,1,15.48-8.52C207.34,317.7,199.08,357,192.52,382.78Z"/><path class="cls-5" d="M148.27,359.25l-6.06.31c1.08-26.59,1-66.74-5.48-106.54a14.74,14.74,0,0,1,15.46,10.11l23,48.21C183.38,330.05,168.65,358.23,148.27,359.25Z"/><path class="cls-6" d="M142.29,359.55l-5.41.27c-20.41,1-37.89-25.56-31.62-45l18.16-50.26A14.7,14.7,0,0,1,136.81,253C143.33,292.82,143.37,333,142.29,359.55Z"/></g><g id="seed-2" data-name="seed"><path class="cls-5" d="M369.21,355.63,364,358.71c-11.37-24.06-30-59.61-54.25-91.85a14.74,14.74,0,0,1,18.39,1.79l42.76,32C386.78,313.48,386.8,345.27,369.21,355.63Z"/><path class="cls-6" d="M364.05,358.67l-4.67,2.75c-17.6,10.37-45.42-5.09-48.88-25.23l-7.22-52.94a14.71,14.71,0,0,1,6.52-16.43C334,299.06,352.68,334.61,364.05,358.67Z"/></g></g></svg>