<svg xmlns="http://www.w3.org/2000/svg" viewBox="0 0 512 512"><defs><style>.cls-1{fill:#8faebc;}.cls-2{fill:#263133;}.cls-3{fill:#78dd62;}.cls-4{fill:#47a82f;}.cls-5{fill:#9fbfd1;}.cls-6{fill:#2c373a;}</style></defs><title>seeds</title><g id="SEEDS"><g id="seed"><path class="cls-1" d="M439,193.9l2.22,7.26C408.69,208,360,220.29,313.79,240.35a18.43,18.43,0,0,1,7.54-21.84l51.39-42.64C392.91,160.27,431.56,169.51,439,193.9Z"/><path class="cls-2" d="M441.22,201.06l2,6.48c7.47,24.42-19.42,53.73-44.91,52.07L331.83,253a18.36,18.36,0,0,1-18.07-12.7C360,220.19,408.66,207.87,441.22,201.06Z"/></g><g id="seed_open"><g id="green"><path class="cls-3" d="M197.17,197.92c-12.36,28.7-10.47,57.21,4.11,64.35l.7.32c15.21,6.56,37.73-11.78,50.3-40.94s10.41-58.12-4.81-64.68l-.71-.28C231.55,151,209.54,169.21,197.17,197.92Z"/><path class="cls-4" d="M246.76,156.69,201.28,262.27l.7.32c15.21,6.56,37.73-11.78,50.3-40.94s10.41-58.12-4.81-64.68Z"/></g><path class="cls-5" d="M197.53,271.77l-5.79-4.91c21.75-24.12,40.9-67,86.16-101.78a18.43,18.43,0,0,1,5.44,22.45l-20.25,63.64C254.51,275.2,217,288.28,197.53,271.77Z"/><path class="cls-6" d="M198.91,272.4l-6.57-1.63c-24.79-6.14-36.11-44.28-21.58-65.29l39.87-53.59a18.36,18.36,0,0,1,20.18-9C224.25,192.9,209.81,241,198.91,272.4Z"/></g><g id="seeds-2" data-name="seeds"><path class="cls-1" d="M186.4,461l-7.5-1.19c8.21-32.24,18.53-81.35,20.86-131.71a18.43,18.43,0,0,1,16.3,16.37l15.7,64.91C236.88,434.33,211.59,465,186.4,461Z"/><path class="cls-2" d="M179,459.79l-6.69-1.07c-25.22-4-39.72-41.07-27-63.23l35.2-56.77a18.38,18.38,0,0,1,19.36-10.64C197.54,378.44,187.21,427.55,179,459.79Z"/><path class="cls-5" d="M123.7,430.38l-7.58.38c1.35-33.24,1.29-83.42-6.85-133.18a18.44,18.44,0,0,1,19.33,12.65l28.79,60.25C167.58,393.88,149.18,429.09,123.7,430.38Z"/><path class="cls-6" d="M116.22,430.75l-6.77.34c-25.5,1.29-47.35-32-39.51-56.27L92.63,312a18.38,18.38,0,0,1,16.74-14.42C117.52,347.33,117.58,397.52,116.22,430.75Z"/></g><g id="seed-2" data-name="seed"><path class="cls-5" d="M399.87,425.85l-6.54,3.85c-14.2-30.07-37.53-74.51-67.81-114.81a18.43,18.43,0,0,1,23,2.23l53.44,40C421.83,373.16,421.85,412.9,399.87,425.85Z"/><path class="cls-6" d="M393.42,429.65l-5.84,3.44c-22,13-56.77-6.36-61.1-31.54l-9-66.18a18.4,18.4,0,0,1,8.14-20.54C355.89,355.14,379.21,399.58,393.42,429.65Z"/></g></g></svg>