<svg xmlns="http://www.w3.org/2000/svg" viewBox="0 0 512 512"><defs><style>.cls-1{fill:#dd9973;}.cls-2{fill:#f2b18f;}.cls-3{fill:#6d94a5;}.cls-4{fill:#9fbfd1;}.cls-5,.cls-7{fill:none;stroke-linecap:round;stroke-linejoin:round;}.cls-5{stroke:#6d94a5;stroke-width:6.25px;}.cls-6{fill:#5c838e;}.cls-7{stroke:#e9f9ff;stroke-width:5px;}</style></defs><title>sickle</title><g id="SICKLE"><g id="body"><path class="cls-1" d="M340.83,440.59a15.68,15.68,0,0,1,1.08,13.55,15.18,15.18,0,0,1-1.74,3.31,14.33,14.33,0,0,1-2.12,2.5,15.93,15.93,0,0,1-2.88,2.16l-6.83,4-2.95,1.74-3,1.73-2.74,1.62-9.19,5.36-1.08.63-1.08.63-1.62.95-3.23,1.89-.47.27a14.51,14.51,0,0,1-3.55,1.52,11.19,11.19,0,0,1-1.27.31c-.44.08-.87.16-1.32.21a12.6,12.6,0,0,1-1.94.09.56.56,0,0,1-.18,0,15,15,0,0,1-4.83-.87,15.51,15.51,0,0,1-8.43-6.9l-42.71-73.11-2.59-4.4-2.69-4.61-2.62-4.5-13.58-23.23-2.63-4.51L212,356.3l-2.58-4.41L82.26,134.35a15.67,15.67,0,0,1-2.08-9.18,16,16,0,0,1,1-4.5,15.22,15.22,0,0,1,1.77-3.3,14.71,14.71,0,0,1,2.14-2.47,16.12,16.12,0,0,1,2.78-2.08l5.24-3.06,2.67-1.56,2.41-1.41,2.72-1.58,5.53-3.24,4.86-2.83,1.07-.64L120.1,94l.41-.23a15.57,15.57,0,0,1,2.91-1.21c.42-.13.83-.24,1.25-.34a15.82,15.82,0,0,1,17,7.44l139,237.8a10.74,10.74,0,0,1,.35,10c-2.42,5.09-1.93,12.26,1.79,18.7s9.83,10.53,15.49,10.91a10.66,10.66,0,0,1,8.56,5.2l.56,1a10.66,10.66,0,0,1,.45,9.78c-2.31,5.07-1.78,12.13,1.88,18.49s9.66,10.42,15.27,10.89a10.57,10.57,0,0,1,8.31,5.2Z"/><path class="cls-2" d="M322.57,448.21a7.86,7.86,0,0,0-2.87,10.73l3.94,6.82a7.69,7.69,0,0,0,1.75,2.08l2.95-1.74a4.73,4.73,0,0,1-2-1.89l-3.94-6.82a4.76,4.76,0,1,1,8.24-4.75l3.94,6.82a4.66,4.66,0,0,1,.62,2.65,15.93,15.93,0,0,0,2.88-2.16,7.16,7.16,0,0,0-.82-2l-3.93-6.82A7.86,7.86,0,0,0,322.57,448.21Z"/><path class="cls-2" d="M319.58,442.62l-.69.4a13.62,13.62,0,0,0-5,18.57l4.54,7.85a13.58,13.58,0,0,0,1.21,1.75l2.74-1.62a10.07,10.07,0,0,1-1.22-1.7L316.64,460a10.45,10.45,0,0,1,3.82-14.26l.69-.4a10.46,10.46,0,0,1,14.26,3.82L340,457c.08.14.15.27.22.42a15.18,15.18,0,0,0,1.74-3.31l-3.77-6.54A13.61,13.61,0,0,0,319.58,442.62Z"/><path class="cls-2" d="M217.05,359.11a13.09,13.09,0,0,0-2.4,1.8l2.63,4.51a7.67,7.67,0,0,1,12.74.81l6.35,11a7.68,7.68,0,0,1-2.81,10.48,7.33,7.33,0,0,1-2.7.94l2.62,4.5a12.67,12.67,0,0,0,7.2-18.41l-6.35-11A12.67,12.67,0,0,0,217.05,359.11Z"/><path class="cls-2" d="M212.24,350.11l-1.13.65c-.6.35-1.18.73-1.74,1.13L212,356.3a14.4,14.4,0,0,1,1.7-1.14l1.13-.65a16.83,16.83,0,0,1,23,6.15l7.32,12.67a16.84,16.84,0,0,1-6.16,23l-1.12.65a16.27,16.27,0,0,1-1.61.82l2.59,4.4q.8-.37,1.56-.81l1.13-.65a21.92,21.92,0,0,0,8-29.91l-7.31-12.67A21.93,21.93,0,0,0,212.24,350.11Z"/><path class="cls-2" d="M191.86,238a12.66,12.66,0,0,0-4.63,17.28l6.35,11a12.65,12.65,0,1,0,21.91-12.65l-6.35-11A12.66,12.66,0,0,0,191.86,238Zm19.32,18.12a7.67,7.67,0,1,1-13.28,7.67l-6.35-11a7.67,7.67,0,0,1,13.28-7.67Z"/><path class="cls-2" d="M187.05,229l-1.13.65a21.93,21.93,0,0,0-8,29.9l7.31,12.66a21.92,21.92,0,0,0,29.91,8l1.13-.65a21.91,21.91,0,0,0,8-29.9L217,237A21.92,21.92,0,0,0,187.05,229Zm32.82,23.21a16.85,16.85,0,0,1-6.16,23l-1.12.65a16.84,16.84,0,0,1-23-6.15L182.31,257a16.85,16.85,0,0,1,6.15-23l1.13-.65a16.84,16.84,0,0,1,23,6.16Z"/><path class="cls-2" d="M93.15,109.76l3,5.24a4.76,4.76,0,1,1-8.24,4.75l-2.8-4.85A14.71,14.71,0,0,0,83,117.37l2.27,3.93a7.85,7.85,0,0,0,13.6-7.85l-3-5.25Z"/><path class="cls-2" d="M98.23,106.79l3.34,5.78a10.46,10.46,0,0,1-3.82,14.26l-.69.4a10.45,10.45,0,0,1-14.26-3.82l-1.58-2.74a16,16,0,0,0-1,4.5A13.62,13.62,0,0,0,98.63,130l.69-.4a13.61,13.61,0,0,0,5-18.56L101,105.21Z"/></g><g id="head"><path class="cls-3" d="M426.31,115A12.22,12.22,0,0,1,412.1,132.2c-18.61-5.1-76.3-15.52-159.34,34.94C227,182.83,209.54,197.66,197.89,211c-27.87-42.54-60.81-94.76-60.81-94.76l98.56-56.91c65.43-37.77,151-13.18,190.16,54.66h0C426,114.32,426.15,114.63,426.31,115Z"/><path class="cls-4" d="M124.78,224.43,98.07,178.17c-15.33-29.06-22.2-23.66,13.31-47S159,99.28,231.68,57.34,385.57,43.62,423,108.52a9.84,9.84,0,0,1,.48.91c4.51,9.22-4.61,19.59-14.74,17.17-18.55-4.46-76.2-13-161,38.35a297.75,297.75,0,0,0-40.9,29.21Z"/><path class="cls-4" d="M206.59,194.31l22.48,38.94a11.47,11.47,0,0,1-4.19,15.62l-55.38,32a10.86,10.86,0,0,1-14.84-4l-5.82-10.08Z"/><polygon class="cls-4" points="148.84 266.8 124.47 224.58 206.59 194.31 148.84 266.8"/><line class="cls-5" x1="167.09" y1="124.94" x2="209.26" y2="192.97"/><ellipse class="cls-3" cx="146.65" cy="174.24" rx="18.12" ry="18.75" transform="translate(-67.47 96.67) rotate(-30)"/><circle class="cls-6" cx="146.65" cy="174.24" r="9.37"/><path class="cls-7" d="M261.09,56.21c46.59-16.8,84.66,1.64,84.66,1.64"/><path class="cls-7" d="M229.65,71.78a92.41,92.41,0,0,1,15.52-8.4"/></g></g></svg>