<svg xmlns="http://www.w3.org/2000/svg" viewBox="0 0 512 512"><defs><style>.cls-1{fill:#dd9973;}.cls-2{fill:#f2b18f;}.cls-3{fill:#6d94a5;}.cls-4{fill:#9fbfd1;}.cls-5,.cls-7{fill:none;stroke-linecap:round;stroke-linejoin:round;}.cls-5{stroke:#6d94a5;stroke-width:5px;}.cls-6{fill:#5c838e;}.cls-7{stroke:#e9f9ff;stroke-width:4px;}</style></defs><title>sickle</title><g id="SICKLE"><g id="body"><path class="cls-1" d="M315.78,422.52a12.55,12.55,0,0,1,.86,10.84,12,12,0,0,1-1.39,2.65,11.48,11.48,0,0,1-1.7,2,12.47,12.47,0,0,1-2.3,1.73l-5.46,3.19-2.37,1.39L301,445.71l-2.2,1.29-7.35,4.29-.86.51-.87.5-1.29.76-2.59,1.51-.37.22a11.8,11.8,0,0,1-2.85,1.21c-.33.1-.67.18-1,.25a9.34,9.34,0,0,1-1.06.16,10,10,0,0,1-1.55.08h-.14a12.13,12.13,0,0,1-3.87-.69,12.44,12.44,0,0,1-6.74-5.53l-34.17-58.48-2.07-3.53-2.15-3.68-2.1-3.6-10.86-18.59-2.1-3.6-2.17-3.69-2.06-3.53-101.69-174a12.57,12.57,0,0,1-1.67-7.35,13,13,0,0,1,.84-3.59,12.1,12.1,0,0,1,1.42-2.65,11.79,11.79,0,0,1,1.71-2,12.6,12.6,0,0,1,2.22-1.66l4.19-2.45,2.14-1.25,1.93-1.13,2.18-1.27,4.42-2.58,3.88-2.27.86-.51,6.15-3.59a2.68,2.68,0,0,1,.33-.18,11.77,11.77,0,0,1,2.33-1c.33-.1.66-.18,1-.26a12.65,12.65,0,0,1,13.56,5.94L267.58,340a8.55,8.55,0,0,1,.27,8c-1.93,4.07-1.54,9.81,1.44,15s7.86,8.43,12.39,8.73a8.58,8.58,0,0,1,6.85,4.16l.45.78a8.54,8.54,0,0,1,.36,7.82c-1.85,4.06-1.43,9.71,1.5,14.79s7.73,8.34,12.22,8.71a8.49,8.49,0,0,1,6.65,4.16Z"/><path class="cls-2" d="M301.17,428.62a6.29,6.29,0,0,0-2.3,8.58l3.15,5.45a6.32,6.32,0,0,0,1.4,1.67l2.37-1.39a3.82,3.82,0,0,1-1.63-1.51L301,436a3.8,3.8,0,1,1,6.59-3.8l3.15,5.45a3.71,3.71,0,0,1,.5,2.13,12.47,12.47,0,0,0,2.3-1.73,5.62,5.62,0,0,0-.65-1.64l-3.15-5.45A6.28,6.28,0,0,0,301.17,428.62Z"/><path class="cls-2" d="M298.78,424.15l-.56.32a10.89,10.89,0,0,0-4,14.85l3.63,6.28a10.86,10.86,0,0,0,1,1.4l2.2-1.29a7.92,7.92,0,0,1-1-1.37l-3.63-6.28a8.37,8.37,0,0,1,3.05-11.41l.56-.32a8.35,8.35,0,0,1,11.4,3.06l3.63,6.28a2.79,2.79,0,0,1,.18.34,12,12,0,0,0,1.39-2.65l-3-5.23A10.87,10.87,0,0,0,298.78,424.15Z"/><path class="cls-2" d="M216.75,357.34a9.76,9.76,0,0,0-1.91,1.44l2.1,3.6a6,6,0,0,1,1.81-1.58,6.14,6.14,0,0,1,8.38,2.23l5.08,8.8a6.15,6.15,0,0,1-2.25,8.39,5.87,5.87,0,0,1-2.16.75l2.1,3.6a10.31,10.31,0,0,0,2-.9,10.14,10.14,0,0,0,3.71-13.83l-5.08-8.8A10.14,10.14,0,0,0,216.75,357.34Z"/><path class="cls-2" d="M212.91,350.14l-.9.52c-.49.28-.95.58-1.4.9l2.06,3.53a10.92,10.92,0,0,1,1.37-.92l.9-.52a13.48,13.48,0,0,1,18.37,4.93l5.85,10.13a13.47,13.47,0,0,1-4.92,18.37l-.9.52a13,13,0,0,1-1.29.65l2.07,3.53c.43-.2.84-.42,1.25-.65l.9-.52a17.54,17.54,0,0,0,6.41-23.93l-5.85-10.13A17.53,17.53,0,0,0,212.91,350.14Z"/><path class="cls-2" d="M196.6,260.43a10.14,10.14,0,0,0-3.7,13.83l5.08,8.8a10.12,10.12,0,0,0,17.52-10.12l-5.08-8.8A10.13,10.13,0,0,0,196.6,260.43Zm15.46,14.5a6.14,6.14,0,0,1-10.63,6.13l-5.08-8.8A6.14,6.14,0,0,1,207,266.13Z"/><path class="cls-2" d="M192.75,253.23l-.9.52a17.55,17.55,0,0,0-6.41,23.92l5.85,10.13a17.54,17.54,0,0,0,23.93,6.42l.9-.52a17.54,17.54,0,0,0,6.4-23.93l-5.85-10.13A17.54,17.54,0,0,0,192.75,253.23ZM219,271.8a13.48,13.48,0,0,1-4.93,18.38l-.9.52a13.47,13.47,0,0,1-18.37-4.93L189,275.64a13.47,13.47,0,0,1,4.92-18.37l.9-.52a13.47,13.47,0,0,1,18.38,4.92Z"/><path class="cls-2" d="M117.63,157.86l2.42,4.19a3.8,3.8,0,1,1-6.59,3.8L111.22,162a11.79,11.79,0,0,0-1.71,2l1.81,3.15a6.28,6.28,0,0,0,10.88-6.28l-2.43-4.2Z"/><path class="cls-2" d="M121.7,155.48l2.67,4.63a8.35,8.35,0,0,1-3.06,11.4l-.55.32a8.37,8.37,0,0,1-11.41-3.05l-1.26-2.19a13,13,0,0,0-.84,3.59A10.9,10.9,0,0,0,122,174l.55-.32a10.89,10.89,0,0,0,4-14.85l-2.67-4.64Z"/></g><g id="head"><path class="cls-3" d="M384.16,162a9.77,9.77,0,0,1-11.36,13.8c-14.89-4.08-61.05-12.42-127.47,27.95-20.65,12.55-34.59,24.42-43.91,35.11-22.29-34-48.65-75.81-48.65-75.81l78.86-45.53C284,87.31,352.43,107,383.76,161.25h0C383.9,161.5,384,161.76,384.16,162Z"/><path class="cls-4" d="M142.94,249.59l-21.37-37c-12.27-23.25-17.76-18.92,10.65-37.63s38.13-25.48,96.24-59,123.11-11,153.08,41a7.09,7.09,0,0,1,.38.72c3.61,7.38-3.68,15.67-11.79,13.74-14.84-3.57-61-10.42-128.78,30.68a238.94,238.94,0,0,0-32.72,23.37Z"/><path class="cls-4" d="M208.38,225.5l18,31.15a9.18,9.18,0,0,1-3.35,12.5l-44.31,25.58a8.7,8.7,0,0,1-11.87-3.18l-4.65-8.07Z"/><polygon class="cls-4" points="162.19 283.49 142.69 249.71 208.38 225.5 162.19 283.49"/><line class="cls-5" x1="176.79" y1="170" x2="210.52" y2="224.42"/><ellipse class="cls-3" cx="160.43" cy="209.44" rx="14.5" ry="15" transform="translate(-83.23 108.28) rotate(-30)"/><circle class="cls-6" cx="160.43" cy="209.44" r="7.5"/><path class="cls-7" d="M252,115c37.28-13.44,67.73,1.31,67.73,1.31"/><path class="cls-7" d="M226.84,127.48a73.78,73.78,0,0,1,12.41-6.73"/></g></g></svg>