<svg xmlns="http://www.w3.org/2000/svg" viewBox="0 0 512 512"><defs><style>.cls-1{fill:#942be0;}.cls-2{fill:#0cba52;}.cls-3{fill:#eaeaea;}.cls-4{fill:#f29b5f;}.cls-5{fill:#c17540;}.cls-6{fill:#751fc1;}.cls-7{fill:#61197c;}.cls-8{fill:#f95de3;}.cls-9{fill:#d335cc;}.cls-10{fill:none;stroke:#1c1c1c;stroke-linecap:round;stroke-linejoin:round;stroke-width:14.69px;}</style></defs><title>poison</title><g id="POISEN"><g id="body"><path id="body_circle" class="cls-1" d="M315.11,216.19c76,16.51,131.25,66.72,131.25,126.12,0,72.84-83.11,131.88-185.63,131.88s-185.62-59-185.62-131.88c0-49.81,38.87-93.17,96.25-115.6Z"/><polygon class="cls-1" points="315.11 164.19 315.11 218.69 224.07 225.35 213.68 226.11 171.36 229.21 171.36 164.19 315.11 164.19"/></g><path id="slime" class="cls-2" d="M253.05,248.13c12,3,21.06-15,30.08-10.53,7.25,3.62,3,31.59,21.06,31.59,30.09,0,22.56-81.23,22.56-81.23l-98.47-.13S226.78,241.56,253.05,248.13Z"/><rect class="cls-3" x="308.7" y="193.98" width="9.03" height="10.53" rx="3.98"/><rect class="cls-3" x="308.7" y="209.02" width="9.03" height="24.07" rx="4.51"/><g id="cork"><rect class="cls-4" x="178.23" y="105.44" width="135" height="43.75" rx="8.53"/><rect class="cls-5" x="247.61" y="126.69" width="10" height="20" rx="5"/><path class="cls-5" d="M196.36,122.61v.65a4.69,4.69,0,0,1-4.68,4.68H178.23v-10h13.45A4.68,4.68,0,0,1,196.36,122.61Z"/><rect class="cls-5" x="215.11" y="116.69" width="11.25" height="6.25" rx="3.12"/><path class="cls-5" d="M278.86,106.06v8.75a4.38,4.38,0,1,1-8.75,0v-8.75a3.18,3.18,0,0,1,.05-.62h8.65A3.18,3.18,0,0,1,278.86,106.06Z"/><path class="cls-5" d="M313.23,121.69v6.25h-5a3.13,3.13,0,1,1,0-6.25Z"/></g><rect id="neck" class="cls-6" x="152.61" y="136.06" width="186.25" height="60" rx="15.7"/><rect class="cls-7" x="217.61" y="359.19" width="85" height="33.75" rx="7.71"/><g id="tongue"><path class="cls-8" d="M249.24,439.3c-19-.54-27.94-14.69-32.08-30.17A29.82,29.82,0,0,1,246,371.69h40.41a1,1,0,0,1,1,.93C287.55,380.76,286.36,440.34,249.24,439.3Z"/><path class="cls-9" d="M256.72,408.63a3.59,3.59,0,0,1-5-.73c-4.92-6.56-3.68-13.9-2.57-20.41.9-5.4,1.71-10.07-.63-14a3.46,3.46,0,0,1-.53-1.84h6.61a1.51,1.51,0,0,1,1.42,1c2,5.37,1.07,11,.22,16.05-1,5.8-1.84,10.8,1.23,14.91A3.58,3.58,0,0,1,256.72,408.63Z"/></g><path class="cls-6" d="M212,219.52a4.41,4.41,0,0,1-4.53,3.56c-1.69-.09-4.33-.12-7.58-.09-11.33.11-16.39,1-28.53,2.93a0,0,0,0,1,0,0v-8.76s0,0,0,0c16.34-2.41,28.11-3.14,36.29-2.76A4.5,4.5,0,0,1,212,219.52Z"/><g id="eye_right"><line class="cls-10" x1="328.86" y1="295.44" x2="362.61" y2="325.44"/><line class="cls-10" x1="329.48" y1="326.06" x2="359.48" y2="292.31"/></g><g id="eye_left"><line class="cls-10" x1="165.11" y1="295.44" x2="198.86" y2="325.44"/><line class="cls-10" x1="165.73" y1="326.06" x2="195.73" y2="292.31"/></g></g></svg>